<?xml version="1.0" encoding="UTF-8" standalone="no"?>
<!DOCTYPE svg PUBLIC "-//W3C//DTD SVG 1.1//EN"
 "http://www.w3.org/Graphics/SVG/1.1/DTD/svg11.dtd">
<!-- Generated by graphviz version 2.38.0 (20140413.2041)
 -->
<!-- Title: g Pages: 1 -->
<svg width="755pt" height="426pt"
 viewBox="0.00 0.00 754.64 426.00" xmlns="http://www.w3.org/2000/svg" xmlns:xlink="http://www.w3.org/1999/xlink">
<g id="graph0" class="graph" transform="scale(1 1) rotate(0) translate(4 422)">
<title>g</title>
<polygon fill="white" stroke="none" points="-4,4 -4,-422 750.643,-422 750.643,4 -4,4"/>
<g id="clust1" class="cluster"><title>cluster_01</title>
<polygon fill="none" stroke="blue" points="602.643,-8 602.643,-410 738.643,-410 738.643,-8 602.643,-8"/>
<text text-anchor="middle" x="670.643" y="-398" font-family="Arial" font-size="10.00">Publication Module</text>
</g>
<g id="clust2" class="cluster"><title>cluster_0</title>
<polygon fill="none" stroke="blue" points="610.643,-118 610.643,-383 730.643,-383 730.643,-118 610.643,-118"/>
<text text-anchor="middle" x="670.643" y="-371" font-family="Arial" font-size="10.00">MX Procedure 000</text>
</g>
<g id="clust3" class="cluster"><title>cluster_1</title>
<polygon fill="none" stroke="black" points="619.643,-228 619.643,-356 721.643,-356 721.643,-228 619.643,-228"/>
<text text-anchor="middle" x="670.643" y="-344" font-family="Arial" font-size="10.00">ICN</text>
</g>
<!-- Blue = git version controlled -->
<g id="node1" class="node"><title>Blue = git version controlled</title>
<polygon fill="none" stroke="blue" points="5.32155,-51 5.32155,-87 142.322,-87 142.322,-51 5.32155,-51"/>
<text text-anchor="middle" x="73.8216" y="-66.5" font-family="Arial" font-size="10.00">Blue = git version controlled</text>
</g>
<!-- Red = DMC process problem -->
<g id="node2" class="node"><title>Red = DMC process problem</title>
<polygon fill="none" stroke="red" points="2.32155,-106 2.32155,-142 145.322,-142 145.322,-106 2.32155,-106"/>
<text text-anchor="middle" x="73.8216" y="-121.5" font-family="Arial" font-size="10.00">Red = DMC process problem</text>
</g>
<!-- ??Business??
??Intelligence??
??Thing?? -->
<g id="node3" class="node"><title>??Business??
??Intelligence??
??Thing??</title>
<polygon fill="none" stroke="black" points="139.484,-187.041 139.484,-212.959 101.02,-231.285 46.6231,-231.285 8.15873,-212.959 8.15873,-187.041 46.6231,-168.715 101.02,-168.715 139.484,-187.041"/>
<polygon fill="none" stroke="black" points="143.475,-184.525 143.475,-215.475 101.923,-235.273 45.7206,-235.273 4.16837,-215.475 4.16837,-184.525 45.7206,-164.727 101.923,-164.727 143.475,-184.525"/>
<polygon fill="none" stroke="black" points="147.465,-182.008 147.465,-217.992 102.825,-239.26 44.8181,-239.26 0.178019,-217.992 0.178019,-182.008 44.8181,-160.74 102.825,-160.74 147.465,-182.008"/>
<text text-anchor="middle" x="73.8216" y="-208.5" font-family="Arial" font-size="10.00">??Business??</text>
<text text-anchor="middle" x="73.8216" y="-197.5" font-family="Arial" font-size="10.00">??Intelligence??</text>
<text text-anchor="middle" x="73.8216" y="-186.5" font-family="Arial" font-size="10.00">??Thing??</text>
</g>
<!-- Solid Model -->
<g id="node4" class="node"><title>Solid Model</title>
<polygon fill="none" stroke="black" points="183.643,-233 183.643,-269 251.643,-269 251.643,-233 183.643,-233"/>
<text text-anchor="middle" x="217.643" y="-248.5" font-family="Arial" font-size="10.00">Solid Model</text>
</g>
<!-- ??Business??
??Intelligence??
??Thing??&#45;&gt;Solid Model -->
<g id="edge1" class="edge"><title>??Business??
??Intelligence??
??Thing??&#45;&gt;Solid Model</title>
<path fill="none" stroke="black" stroke-dasharray="1,5" d="M137.852,-222.666C153.413,-228.262 169.487,-234.042 183.025,-238.911"/>
<polygon fill="black" stroke="black" points="183.345,-239.026 183.345,-239.026 183.345,-239.026 183.345,-239.026"/>
</g>
<!-- PDM -->
<g id="node5" class="node"><title>PDM</title>
<polygon fill="none" stroke="black" points="388.643,-182 388.643,-218 442.643,-218 442.643,-182 388.643,-182"/>
<text text-anchor="middle" x="415.643" y="-197.5" font-family="Arial" font-size="10.00">PDM</text>
</g>
<!-- ??Business??
??Intelligence??
??Thing??&#45;&gt;PDM -->
<g id="edge2" class="edge"><title>??Business??
??Intelligence??
??Thing??&#45;&gt;PDM</title>
<path fill="none" stroke="black" stroke-dasharray="1,5" d="M147.722,-200C223.242,-200 337.215,-200 388.274,-200"/>
<polygon fill="black" stroke="black" points="388.573,-200 388.573,-200 388.573,-200 388.573,-200"/>
</g>
<!-- LSAR -->
<g id="node6" class="node"><title>LSAR</title>
<polygon fill="none" stroke="black" points="388.643,-127 388.643,-163 442.643,-163 442.643,-127 388.643,-127"/>
<text text-anchor="middle" x="415.643" y="-142.5" font-family="Arial" font-size="10.00">LSAR</text>
</g>
<!-- ??Business??
??Intelligence??
??Thing??&#45;&gt;LSAR -->
<g id="edge3" class="edge"><title>??Business??
??Intelligence??
??Thing??&#45;&gt;LSAR</title>
<path fill="none" stroke="black" stroke-dasharray="1,5" d="M147.722,-188.201C223.242,-175.978 337.215,-157.532 388.274,-149.268"/>
<polygon fill="black" stroke="black" points="388.573,-149.219 388.573,-149.219 388.573,-149.219 388.573,-149.219"/>
</g>
<!-- 3MF/STEP -->
<g id="node14" class="node"><title>3MF/STEP</title>
<polygon fill="none" stroke="blue" points="287.643,-237 287.643,-273 352.643,-273 352.643,-237 287.643,-237"/>
<text text-anchor="middle" x="320.143" y="-252.5" font-family="Arial" font-size="10.00">3MF/STEP</text>
</g>
<!-- Solid Model&#45;&gt;3MF/STEP -->
<g id="edge8" class="edge"><title>Solid Model&#45;&gt;3MF/STEP</title>
<path fill="none" stroke="black" d="M251.829,-252.321C261.567,-252.708 272.274,-253.135 282.229,-253.531"/>
<polygon fill="black" stroke="black" points="282.292,-255.285 287.357,-253.735 282.431,-251.787 282.292,-255.285"/>
</g>
<!-- PCIR (release) -->
<g id="node9" class="node"><title>PCIR (release)</title>
<polygon fill="none" stroke="blue" points="487.643,-182 487.643,-218 567.643,-218 567.643,-182 487.643,-182"/>
<text text-anchor="middle" x="527.643" y="-197.5" font-family="Arial" font-size="10.00">PCIR (release)</text>
</g>
<!-- PDM&#45;&gt;PCIR (release) -->
<g id="edge9" class="edge"><title>PDM&#45;&gt;PCIR (release)</title>
<path fill="none" stroke="black" d="M442.712,-200C454.49,-200 468.743,-200 482.134,-200"/>
<polygon fill="black" stroke="black" points="482.413,-201.75 487.413,-200 482.413,-198.25 482.413,-201.75"/>
</g>
<!-- PCIR (production) -->
<g id="node10" class="node"><title>PCIR (production)</title>
<polygon fill="none" stroke="blue" points="481.143,-127 481.143,-163 574.143,-163 574.143,-127 481.143,-127"/>
<text text-anchor="middle" x="527.643" y="-142.5" font-family="Arial" font-size="10.00">PCIR (production)</text>
</g>
<!-- LSAR&#45;&gt;PCIR (production) -->
<g id="edge4" class="edge"><title>LSAR&#45;&gt;PCIR (production)</title>
<path fill="none" stroke="black" d="M442.712,-145C452.629,-145 464.3,-145 475.734,-145"/>
<polygon fill="black" stroke="black" points="475.964,-146.75 480.964,-145 475.964,-143.25 475.964,-146.75"/>
</g>
<!-- MTA -->
<g id="node11" class="node"><title>MTA</title>
<polygon fill="none" stroke="black" points="500.643,-72 500.643,-108 554.643,-108 554.643,-72 500.643,-72"/>
<text text-anchor="middle" x="527.643" y="-87.5" font-family="Arial" font-size="10.00">MTA</text>
</g>
<!-- LSAR&#45;&gt;MTA -->
<g id="edge5" class="edge"><title>LSAR&#45;&gt;MTA</title>
<path fill="none" stroke="red" d="M442.712,-131.966C458.623,-124.01 479.052,-113.796 495.77,-105.436"/>
<polygon fill="red" stroke="red" points="496.691,-106.933 500.381,-103.131 495.126,-103.802 496.691,-106.933"/>
</g>
<!-- Xquery -->
<g id="node7" class="node"><title>Xquery</title>
<polygon fill="none" stroke="blue" points="388.643,-237 388.643,-273 442.643,-273 442.643,-237 388.643,-237"/>
<text text-anchor="middle" x="415.643" y="-252.5" font-family="Arial" font-size="10.00">Xquery</text>
</g>
<!-- PCIR (engineering) -->
<g id="node8" class="node"><title>PCIR (engineering)</title>
<polygon fill="none" stroke="blue" points="478.643,-237 478.643,-273 576.643,-273 576.643,-237 478.643,-237"/>
<text text-anchor="middle" x="527.643" y="-252.5" font-family="Arial" font-size="10.00">PCIR (engineering)</text>
</g>
<!-- Xquery&#45;&gt;PCIR (engineering) -->
<g id="edge15" class="edge"><title>Xquery&#45;&gt;PCIR (engineering)</title>
<path fill="none" stroke="black" d="M442.712,-255C451.884,-255 462.557,-255 473.156,-255"/>
<polygon fill="black" stroke="black" points="473.346,-256.75 478.345,-255 473.345,-253.25 473.346,-256.75"/>
</g>
<!-- Parts Data (TextQL) -->
<g id="node15" class="node"><title>Parts Data (TextQL)</title>
<polygon fill="none" stroke="black" points="618.643,-182 618.643,-218 722.643,-218 722.643,-182 618.643,-182"/>
<text text-anchor="middle" x="670.643" y="-197.5" font-family="Arial" font-size="10.00">Parts Data (TextQL)</text>
</g>
<!-- PCIR (engineering)&#45;&gt;Parts Data (TextQL) -->
<g id="edge16" class="edge"><title>PCIR (engineering)&#45;&gt;Parts Data (TextQL)</title>
<path fill="none" stroke="black" d="M570.751,-236.909C581.133,-232.573 592.255,-228.033 602.643,-224 606.127,-222.647 609.724,-221.279 613.357,-219.918"/>
<polygon fill="black" stroke="black" points="614.251,-221.452 618.327,-218.069 613.031,-218.172 614.251,-221.452"/>
</g>
<!-- PCIR (release)&#45;&gt;Parts Data (TextQL) -->
<g id="edge10" class="edge"><title>PCIR (release)&#45;&gt;Parts Data (TextQL)</title>
<path fill="none" stroke="black" d="M567.919,-200C581.976,-200 598.107,-200 613.32,-200"/>
<polygon fill="black" stroke="black" points="613.44,-201.75 618.44,-200 613.44,-198.25 613.44,-201.75"/>
</g>
<!-- PCIR (production)&#45;&gt;Parts Data (TextQL) -->
<g id="edge17" class="edge"><title>PCIR (production)&#45;&gt;Parts Data (TextQL)</title>
<path fill="none" stroke="black" d="M574.422,-162.857C588.437,-168.324 603.946,-174.373 618.306,-179.975"/>
<polygon fill="black" stroke="black" points="617.834,-181.669 623.128,-181.856 619.106,-178.408 617.834,-181.669"/>
</g>
<!-- DMC -->
<g id="node12" class="node"><title>DMC</title>
<polygon fill="none" stroke="black" points="643.643,-127 643.643,-163 697.643,-163 697.643,-127 643.643,-127"/>
<text text-anchor="middle" x="670.643" y="-142.5" font-family="Arial" font-size="10.00">DMC</text>
</g>
<!-- MTA&#45;&gt;DMC -->
<g id="edge6" class="edge"><title>MTA&#45;&gt;DMC</title>
<path fill="none" stroke="red" d="M554.74,-102.421C568.788,-108.908 586.502,-116.77 602.643,-123 614.236,-127.475 627.169,-131.86 638.556,-135.522"/>
<polygon fill="red" stroke="red" points="638.038,-137.194 643.333,-137.046 639.101,-133.859 638.038,-137.194"/>
</g>
<!-- Many many many
other MX Procedures -->
<g id="node13" class="node"><title>Many many many
other MX Procedures</title>
<polygon fill="none" stroke="blue" points="617.143,-72 617.143,-108 724.143,-108 724.143,-72 617.143,-72"/>
<text text-anchor="middle" x="670.643" y="-93" font-family="Arial" font-size="10.00">Many many many</text>
<text text-anchor="middle" x="670.643" y="-82" font-family="Arial" font-size="10.00">other MX Procedures</text>
</g>
<!-- MTA&#45;&gt;Many many many
other MX Procedures -->
<g id="edge7" class="edge"><title>MTA&#45;&gt;Many many many
other MX Procedures</title>
<path fill="none" stroke="red" d="M554.834,-90C570.912,-90 592.162,-90 612.005,-90"/>
<polygon fill="red" stroke="red" points="612.015,-91.7501 617.015,-90 612.015,-88.2501 612.015,-91.7501"/>
</g>
<!-- 3MF/STEP&#45;&gt;Xquery -->
<g id="edge14" class="edge"><title>3MF/STEP&#45;&gt;Xquery</title>
<path fill="none" stroke="black" d="M352.798,-255C362.723,-255 373.665,-255 383.551,-255"/>
<polygon fill="black" stroke="black" points="383.614,-256.75 388.614,-255 383.614,-253.25 383.614,-256.75"/>
</g>
<!-- OpenCascade -->
<g id="node16" class="node"><title>OpenCascade</title>
<polygon fill="none" stroke="black" points="488.643,-292 488.643,-328 566.643,-328 566.643,-292 488.643,-292"/>
<text text-anchor="middle" x="527.643" y="-307.5" font-family="Arial" font-size="10.00">OpenCascade</text>
</g>
<!-- 3MF/STEP&#45;&gt;OpenCascade -->
<g id="edge11" class="edge"><title>3MF/STEP&#45;&gt;OpenCascade</title>
<path fill="none" stroke="black" d="M352.939,-269.725C364.059,-274.461 376.741,-279.406 388.643,-283 419.775,-292.399 455.873,-299.327 483.34,-303.811"/>
<polygon fill="black" stroke="black" points="483.15,-305.553 488.365,-304.62 483.707,-302.097 483.15,-305.553"/>
</g>
<!-- SVG (PDF) -->
<g id="node17" class="node"><title>SVG (PDF)</title>
<polygon fill="none" stroke="blue" points="637.643,-292 637.643,-328 703.643,-328 703.643,-292 637.643,-292"/>
<text text-anchor="middle" x="670.643" y="-307.5" font-family="Arial" font-size="10.00">SVG (PDF)</text>
</g>
<!-- OpenCascade&#45;&gt;SVG (PDF) -->
<g id="edge12" class="edge"><title>OpenCascade&#45;&gt;SVG (PDF)</title>
<path fill="none" stroke="black" d="M566.8,-310C587.1,-310 611.968,-310 632.165,-310"/>
<polygon fill="black" stroke="black" points="632.194,-311.75 637.194,-310 632.194,-308.25 632.194,-311.75"/>
</g>
<!-- Web 3D (HTML) -->
<g id="node18" class="node"><title>Web 3D (HTML)</title>
<polygon fill="none" stroke="blue" points="627.643,-237 627.643,-273 713.643,-273 713.643,-237 627.643,-237"/>
<text text-anchor="middle" x="670.643" y="-252.5" font-family="Arial" font-size="10.00">Web 3D (HTML)</text>
</g>
<!-- OpenCascade&#45;&gt;Web 3D (HTML) -->
<g id="edge13" class="edge"><title>OpenCascade&#45;&gt;Web 3D (HTML)</title>
<path fill="none" stroke="black" d="M566.8,-295.116C583.946,-288.428 604.351,-280.469 622.448,-273.41"/>
<polygon fill="black" stroke="black" points="623.464,-274.892 627.486,-271.444 622.192,-271.631 623.464,-274.892"/>
</g>
<!-- User&#45;defined Attributes
for Applicability -->
<g id="node19" class="node"><title>User&#45;defined Attributes
for Applicability</title>
<polygon fill="none" stroke="black" points="612.643,-17 612.643,-53 728.643,-53 728.643,-17 612.643,-17"/>
<text text-anchor="middle" x="670.643" y="-38" font-family="Arial" font-size="10.00">User&#45;defined Attributes</text>
<text text-anchor="middle" x="670.643" y="-27" font-family="Arial" font-size="10.00">for Applicability</text>
</g>
</g>
</svg>
