<?xml version="1.0" encoding="UTF-8" standalone="no"?>
<!-- Created with Inkscape (http://www.inkscape.org/) -->

<svg
   version="1.1"
   id="svg824"
   width="269.21701"
   height="60.469357"
   viewBox="0 0 269.21701 60.469357"
   xmlns="http://www.w3.org/2000/svg"
   xmlns:svg="http://www.w3.org/2000/svg">
  <defs
     id="defs828" />
  <g
     id="g830"
     transform="translate(-4.5788876,-7.3344841)">
    <path
       style="fill:#000000"
       d="M 39.649255,51.16305 V 34.52226 l 11.961941,-12.28352 11.96194,-12.2835259 0.03806,17.5197459 0.03806,17.51976 -9.25,9.0108 -9.25,9.01081 -2.75,2.39376 -2.75,2.39375 z m 37.177508,4.54216 -11.123076,-11.75 -0.02722,-16.98436 -0.02722,-16.9843719 12,11.9687319 12,11.96874 v 16.76563 16.76563 h -0.849708 -0.849708 z m 58.041707,-3.5 0.28078,-12.25 6.32606,-0.29969 6.32607,-0.29969 -0.32607,2.29969 -0.32606,2.29969 -3.25,-0.01 -3.25,-0.01 v 3.25967 3.25967 h 3.57332 3.57333 l -0.33152,1.75 -0.33151,1.75 -3.24181,0.31336 -3.24181,0.31342 v 4.93664 4.93664 h -3.03078 -3.03078 z m 15,0 0.28078,-12.25 h 2.5 2.5 l 0.28498,10.25 0.28499,10.25 h 3.46501 3.46502 v 2 2 h -6.53078 -6.53078 z m 14.78078,-0.25 v -12.5 h 2.5 2.5 v 12.5 12.5 h -2.5 -2.5 z m 8.21922,0.25 0.28078,-12.25 5.24342,-0.30203 5.24343,-0.30203 2.50657,2.50658 2.50658,2.50658 v 1.82294 1.82295 l -1.5567,2.22251 -1.55671,2.2225 1.55671,2.22251 1.5567,2.22251 v 3.84391 3.84392 l -2.75,-0.31642 -2.75,-0.31643 -0.5,-4.49105 -0.5,-4.49106 -1.75,-0.33227 -1.75,-0.33226 v 5.07332 5.07332 h -3.03078 -3.03078 z m 9.5972,-5.00855 0.31642,-2.74145 h -2.06642 -2.06642 v 3.07333 3.07332 l 1.75,-0.33187 1.75,-0.33188 z M 5.5469761,30.70521 6.5150645,28.95521 16.874441,18.680093 27.233817,8.4049731 44.126049,8.6800941 61.018281,8.9552141 49.720771,20.70521 38.42326,32.45521 H 21.501074 4.5788876 Z m 74.2874019,-10 L 68.818225,8.9552141 85.453463,8.6800401 102.08871,8.4048651 114.11387,20.43004 126.13905,32.45521 H 108.49479 90.85053 Z m 58.814872,1.25 V 11.455214 h -3 -3 v -1.9999999 -2 h 8.5 8.5 v 1.933578 1.9335779 l -2.75,0.316422 -2.75,0.316422 -0.28498,10.249996 -0.28499,10.25 h -2.46501 -2.46502 z m 13,-2 V 7.4552141 h 6.5 6.5 v 2 1.9999999 h -4 -4 v 3 3 h 4 4 v 1.999996 2 h -4 -4 v 3.5 3.5 h 4.5 4.5 v 2 2 h -7 -7 z m 17,0.0477 V 7.4552141 h 2.5 2.5 v 9.9396349 9.939631 l 3.75,0.31037 3.75,0.31036 v 2 2 l -6.25,0.29772 -6.25,0.29772 V 20.00293 Z m 14.66667,11.78562 -0.66667,-0.66667 V 19.28855 7.4552141 h 7 7 v 2 1.9999999 h -4 -4 v 3 3 h 3.5 3.5 v 1.999996 2 h -3.5 -3.5 v 3.5 3.5 h 4 4 v 2 2 h -6.33333 -6.33334 z M 199.64925,19.95519 V 7.4552141 h 5.56574 5.56574 l 1.82908,0.978892 1.82907,0.978891 1.10519,3.1703309 1.10518,3.170333 v 4.201549 4.20156 l -1.04978,3.01139 -1.04977,3.01138 -2.49728,1.13784 -2.49728,1.13783 h -4.95294 -4.95295 z m 9.9253,7.09002 1.17018,-1.40999 -0.29774,-6.840014 -0.29774,-6.840012 -2.25,-0.319551 -2.25,-0.31955 v 8.569547 8.56955 h 1.37756 1.37755 z m 14.0747,1.08239 v -4.32759 l -2.37912,-5.922408 -2.37912,-5.922408 -0.68827,-2.2499999 -0.68827,-2.25 h 2.93743 2.93743 l 1.25484,4.4818399 1.25483,4.481838 0.69852,-0.431709 0.69852,-0.431708 1.33667,-4.05013 1.33666,-4.0501309 h 2.81519 2.81519 l -0.85638,2.25 -0.85639,2.2499999 -2.61886,6.219868 -2.61887,6.219868 v 4.03013 4.03013 h -2.5 -2.5 z m 14,-8.23277 V 7.3344841 l 3.67187,0.310365 3.67188,0.310365 2.57812,6.9999999 2.57813,6.999996 0.29381,-7.249996 0.29381,-7.2499999 h 2.45619 2.45619 v 12.4999959 12.5 h -3.32692 -3.32692 l -2.92308,-8.25 -2.92308,-8.249996 -0.29044,8.249996 -0.29044,8.25 h -2.45956 -2.45956 z m 22,0.0604 V 7.4552141 h 7.07332 7.07333 l -0.33164,1.75 -0.33164,1.7499999 -3.74169,0.310366 -3.74168,0.310365 v 2.939634 2.939635 h 3.5 3.5 v 1.999996 2 h -3.5 -3.5 v 3.5 3.5 h 4 4 v 2 2 h -7 -7 z"
       id="path1758" />
  </g>
</svg>
